<?xml version="1.0" encoding="UTF-8"?><!DOCTYPE svg PUBLIC "-//W3C//DTD SVG 1.1//EN" "http://www.w3.org/Graphics/SVG/1.1/DTD/svg11.dtd"><svg xmlns="http://www.w3.org/2000/svg" xmlns:xlink="http://www.w3.org/1999/xlink" version="1.1" id="Layer_1" x="0px" y="0px" width="64px" height="64px" viewBox="0 0 64 64" xml:space="preserve"><path fill="#FFF" d="M46.3 35.1c0-4.8 3-8.9 7.3-10.6-2.5-5.4-6.8-7.5-11.8-7.5-3.4 0-6.5 1-8.9 3.3-2.5-2.3-5.6-3.3-9-3.3C16.2 17 10 22 10 36.2s10.5 25.7 18.2 25.7c1.8 0 3.4-.7 4.6-1.9 1.2 1.2 2.7 1.9 4.6 1.9 5.8 0 13.3-6.7 16.6-16.1-4.5-1.5-7.7-5.8-7.7-10.7z"/><path fill="#37474F" d="M37.4 62.9c-1.7 0-3.3-.5-4.6-1.6-1.3 1-2.9 1.6-4.6 1.6C19.6 62.9 9 50.6 9 36.2 9 18.6 18.4 16 23.9 16c3.5 0 6.5 1 8.9 2.9 2.4-2 5.4-2.9 8.9-2.9 5.9 0 10.3 2.8 12.7 8.1.1.3.1.5 0 .8s-.3.5-.6.6c-4 1.5-6.6 5.4-6.6 9.6 0 4.4 2.8 8.4 7 9.8.3.1.5.3.6.5.1.2.1.5 0 .8-3.1 9.3-10.8 16.7-17.4 16.7zM32.8 59c.3 0 .5.1.7.3 1.1 1.1 2.4 1.6 3.9 1.6 4.8 0 11.9-5.5 15.3-14.6-4.5-1.9-7.5-6.3-7.5-11.3 0-4.7 2.7-9 6.9-11-2.2-4-5.7-6-10.4-6-3.4 0-6.1 1-8.2 3-.4.4-1 .4-1.4 0-2.1-2-4.8-3-8.2-3C15.5 18 11 24.3 11 36.2c0 14.1 10.4 24.7 17.2 24.7 1.5 0 2.8-.5 3.9-1.6.2-.2.5-.3.7-.3z"/><g><path fill="#FFECB3" d="M35.2 5.5c3.3-3.7 8.3-3.4 8.7-3.4 0 .4.3 5.4-3.4 8.7-3.7 3.3-7.6 2.7-7.9 2.6-.1-.3-.7-4.2 2.6-7.9z"/><path fill="#37474F" d="M33.8 14.6c-.3 0-.8 0-1.2-.1-.1 0-.3 0-.4-.1-.2-.1-.4-.3-.5-.5v-.1c-.1-.1-.1-.3-.1-.5-.1-1-.4-4.9 2.9-8.6 3-3.4 7.3-3.8 9-3.8h.8c.1 0 .1 0 .2.1.3.1.5.4.6.6-.1.4-.1.6-.1.7 0 1.4-.1 6-3.8 9.3-2.8 2.6-5.8 3-7.4 3zm-.3-2h.3c1.2 0 3.7-.3 6.1-2.5 2.5-2.3 3-5.4 3.1-7-1.6.1-4.7.5-7 3.1s-2.5 5.2-2.5 6.4z"/></g><metadata><rdf:RDF xmlns:rdf="http://www.w3.org/1999/02/22-rdf-syntax-ns#" xmlns:rdfs="http://www.w3.org/2000/01/rdf-schema#" xmlns:dc="http://purl.org/dc/elements/1.1/"><rdf:Description about="https://iconscout.com/legal#licenses" dc:title="mac" dc:description="mac" dc:publisher="Iconscout" dc:date="2018-01-30" dc:format="image/svg+xml" dc:language="en"><dc:creator><rdf:Bag><rdf:li>Roundicons.com</rdf:li></rdf:Bag></dc:creator></rdf:Description></rdf:RDF></metadata></svg>